<svg xmlns="http://www.w3.org/2000/svg" viewBox="0 0 64 80" x="0px" y="0px"><path d="m31.74219,60.48926c-3.29443,0-6.9248-1.14551-10.32178-4.65137-1.85303.16406-6.40625.2334-9.61279-2.48242-1.99268-1.68652-3.09326-4.09473-3.2793-7.16895-2.55176-1.41797-4.34863-4.19238-4.67578-7.32812-.29248-2.79883.60156-5.39551,2.49023-7.39258-1.27246-1.0459-2.18799-2.62988-2.5083-4.47168-.53271-3.06445.65771-6.06641,3.2124-8.25391l-3.35059-5.8877c-.40967-.7207-.1582-1.63574.56201-2.0459.72021-.40723,1.63574-.15723,2.04541.56152l4,7.0293c.38916.68359.18408,1.55176-.47021,1.98926-3.31738,2.21777-3.2334,5-3.04346,6.09277.28271,1.62695,1.31738,2.93066,2.57373,3.24512.5752.14355,1.01221.61328,1.11377,1.19727.10205.58398-.1499,1.17383-.64258,1.50391-2.16064,1.44824-3.25391,3.67871-2.99902,6.12109.24756,2.36914,1.74365,4.49609,3.72363,5.29199.56836.22852.94043.7793.94043,1.3916,0,2.61035.75537,4.57422,2.24561,5.83496,2.93213,2.48145,7.95752,1.72363,8.00684,1.71484.50879-.08496,1.02197.0957,1.36426.47852,7.9165,8.8291,17.52881,1.17969,17.93408.84961.54785-.44629,1.33594-.45117,1.88867-.00879,2.78223,2.23438,5.79199,2.82031,8.25391,1.61035,1.86133-.91406,3.1377-2.78418,3.10547-4.54883-.02832-1.52246-.99316-2.75098-2.78906-3.55078-.66504-.2959-1.02148-1.02637-.84473-1.73242.57324-2.30273.44043-4.08691-.39551-5.30566-.97266-1.41797-2.62988-1.66211-2.64648-1.66406-.47559-.05957-.89355-.34277-1.12598-.76172-.23242-.41992-.25-.9248-.04785-1.35938.98535-2.11719.18945-4.66992-.07812-5.40234-.28418-.77832.11621-1.63965.89453-1.92383.7793-.28027,1.63965.11621,1.92383.89453.38867,1.06543,1.09863,3.52441.52637,6.08105.96289.41309,2.14258,1.14844,3.02832,2.43945,1.17383,1.71191,1.53418,3.91504,1.07812,6.56348,2.18164,1.32422,3.43262,3.33789,3.47559,5.66602.05469,2.93359-1.86719,5.86621-4.78223,7.29785-3.2627,1.60352-7.05078,1.12988-10.53516-1.27832-1.74902,1.16113-5.66992,3.36426-10.23828,3.36426Z" style="" stroke-width="0px"/><path d="m19,17.62891c-.46631,0-.91406-.21777-1.20166-.60254-3.0459-4.0752-5.05664-8.08887-5.14111-8.25781-.36914-.74121-.06738-1.6416.67383-2.01074.74072-.36914,1.64209-.06836,2.01123.67285.01855.03613,1.72656,3.44043,4.2915,7.02344,1.79053-.3457,4.81836-.69336,7.75049.08398.80078.21191,1.27783,1.0332,1.06592,1.83398s-1.02832,1.28027-1.83447,1.06641c-2.99463-.79395-6.30957-.08984-7.25391.14648-.12012.0293-.2417.04395-.36182.04395Z" style="" stroke-width="0px"/><path d="m30,35.69336c-.82861,0-1.5-.67188-1.5-1.5,0-1.79199-.41162-3.09668-1.18994-3.77246-.87646-.75977-2.06787-.60254-2.07959-.59863-.81104.1123-1.57764-.44238-1.70312-1.25488-.12549-.81152.41504-1.57129,1.2251-1.70703.25684-.04297,2.55518-.37207,4.47461,1.25195,1.5083,1.27734,2.27295,3.32324,2.27295,6.08105,0,.82812-.67139,1.5-1.5,1.5Z" style="" stroke-width="0px"/><path d="m18,44.96289c-2.15088,0-3.77197-.66504-4.81787-1.97754-1.64404-2.06152-1.07812-4.80566-1.0083-5.11133.18408-.80859.9917-1.31543,1.79639-1.12793.80469.18359,1.30908.98242,1.13037,1.78711-.09717.45215-.20752,1.79688.43408,2.59082.44971.55664,1.2793.83887,2.46533.83887.82861,0,1.5.67188,1.5,1.5s-.67139,1.5-1.5,1.5Z" style="" stroke-width="0px"/><path d="m39.99707,49.61719c-.2002,0-.4043-.04004-.59863-.12598-.75195-.33203-1.10059-1.19824-.77734-1.95312.09668-.22852,1.0127-2.24414,3.18652-2.8623,1.56641-.44629,3.26758-.03613,5.05469,1.2207.67773.47656.84082,1.41211.36523,2.08984-.47656.67871-1.41113.84277-2.08984.36523-.69043-.48535-1.68457-1.01367-2.49219-.79492-.83203.22656-1.26855,1.16504-1.27246,1.1748-.25293.55371-.80176.88574-1.37598.88574Z" style="" stroke-width="0px"/><path d="m19,23.65137c-.38477,0-.76953-.14746-1.0625-.44141-.60156-.60352-1.19873-.89648-1.82617-.89648-1.10547,0-2.04004.8877-2.04883.89648-.58398.58691-1.53467.58887-2.12109.00391-.58691-.58496-.58887-1.53418-.00391-2.12109.18164-.18262,1.84033-1.7793,4.17383-1.7793,1.4248,0,2.7915.61523,3.95117,1.7793.58496.58691.58301,1.53613-.0039,2.12109-.29248.29199-.67578.4375-1.05859.4375Z" style="" stroke-width="0px"/><path d="m32,47.73633c-4.15576,0-5.93799-3.41406-6.2998-5.21875-.16309-.8125.36377-1.60254,1.17578-1.76562.80957-.15918,1.59619.3584,1.76367,1.16602.06396.29395.69238,2.81836,3.36035,2.81836.82861,0,1.5.67188,1.5,1.5s-.67139,1.5-1.5,1.5Z" style="" stroke-width="0px"/><path d="m46,3.5c-7.99512,0-14.49902,6.50488-14.49902,14.5,0,5.26855,2.79785,10.02637,7.35547,12.60352l.59473,4.53418c.07129.54297.43359,1.00488.94434,1.20312.17578.06836.36035.10156.54297.10156.34766,0,.69141-.12109.9668-.35254l4.26367-3.5918c7.91797-.09082,14.33105-6.55957,14.33105-14.49805,0-7.99512-6.50488-14.5-14.5-14.5Zm0,24c-5.23828,0-9.5-4.26172-9.5-9.5s4.26172-9.5,9.5-9.5,9.5,4.26172,9.5,9.5-4.26172,9.5-9.5,9.5Z" style="" stroke-width="0px"/><path d="m46,17.5c-2.46814,0-4.51111-1.62158-4.91473-3.74109-.98486,1.13965-1.58527,2.62024-1.58527,4.24109,0,3.58398,2.91602,6.5,6.5,6.5s6.5-2.91602,6.5-6.5c0-1.62085-.6004-3.10144-1.58527-4.24109-.40363,2.11951-2.44659,3.74109-4.91473,3.74109Z" style="" stroke-width="0px"/><ellipse cx="46" cy="13" rx="2" ry="1.5" style="" stroke-width="0px"/><text x="0" y="79" fill="#000000" font-size="5px" font-weight="bold" font-family="'Helvetica Neue', Helvetica, Arial-Unicode, Arial, Sans-serif">Created by Eklip Studio</text><text x="0" y="84" fill="#000000" font-size="5px" font-weight="bold" font-family="'Helvetica Neue', Helvetica, Arial-Unicode, Arial, Sans-serif">from the Noun Project</text></svg>