<svg xmlns="http://www.w3.org/2000/svg" xmlns:xlink="http://www.w3.org/1999/xlink" viewBox="0 0 24 30" version="1.1" x="0px" y="0px"><title>ovaries</title><desc>Created with Sketch.</desc><g stroke="none" stroke-width="1" fill="none" fill-rule="evenodd"><path d="M16,6.5 C16,3.94759131 14.2403518,2.35489144 11.9885963,2.40626164 C9.7703464,2.45686747 8,4.08617561 8,6.5 C8,8.27006919 8.9102764,10.9498502 10,12.6489071 L10,20 C10,21.2067848 10.8923671,22 12,22 C13.1076329,22 14,21.2067848 14,20 L14,13.5 C14,13.3156447 14,13.3156447 14,13.1607353 L14,12.6488833 C15.087335,10.9529431 16,8.26317665 16,6.5 Z M11,20 L11,12.5 C11,12.4012875 10.970781,12.3047837 10.9160251,12.2226499 C9.8926534,10.6875923 9,8.10299106 9,6.5 C9,4.65439673 10.3143946,3.44471607 12.0114037,3.40600152 C13.7186602,3.36705319 15,4.52682466 15,6.5 C15,8.09618051 14.1046757,10.6915987 13.0839749,12.2226499 C13.029219,12.3047837 13,12.4012875 13,12.5 C13,12.7302315 13,12.7302315 13,12.9024075 L13,20 C13,20.6265485 12.5798671,21 12,21 C11.4201329,21 11,20.6265485 11,20 Z" fill="#000000" fill-rule="nonzero"/><path d="M10.0527864,12.7236068 C10.7370485,14.0921311 13.2629515,14.0921311 13.9472136,12.7236068 C14.0707082,12.4766175 13.970596,12.176281 13.7236068,12.0527864 C13.4766175,11.9292918 13.176281,12.029404 13.0527864,12.2763932 C12.7370485,12.9078689 11.2629515,12.9078689 10.9472136,12.2763932 C10.823719,12.029404 10.5233825,11.9292918 10.2763932,12.0527864 C10.029404,12.176281 9.92929178,12.4766175 10.0527864,12.7236068 Z" fill="#000000" fill-rule="nonzero"/><path d="M10.0527864,14.7236068 C10.7370485,16.0921311 13.2629515,16.0921311 13.9472136,14.7236068 C14.0707082,14.4766175 13.970596,14.176281 13.7236068,14.0527864 C13.4766175,13.9292918 13.176281,14.029404 13.0527864,14.2763932 C12.7370485,14.9078689 11.2629515,14.9078689 10.9472136,14.2763932 C10.823719,14.029404 10.5233825,13.9292918 10.2763932,14.0527864 C10.029404,14.176281 9.92929178,14.4766175 10.0527864,14.7236068 Z" fill="#000000" fill-rule="nonzero"/><path d="M10.0527864,16.7236068 C10.7370485,18.0921311 13.2629515,18.0921311 13.9472136,16.7236068 C14.0707082,16.4766175 13.970596,16.176281 13.7236068,16.0527864 C13.4766175,15.9292918 13.176281,16.029404 13.0527864,16.2763932 C12.7370485,16.9078689 11.2629515,16.9078689 10.9472136,16.2763932 C10.823719,16.029404 10.5233825,15.9292918 10.2763932,16.0527864 C10.029404,16.176281 9.92929178,16.4766175 10.0527864,16.7236068 Z" fill="#000000" fill-rule="nonzero"/><path d="M10.0527864,18.7236068 C10.7370485,20.0921311 13.2629515,20.0921311 13.9472136,18.7236068 C14.0707082,18.4766175 13.970596,18.176281 13.7236068,18.0527864 C13.4766175,17.9292918 13.176281,18.029404 13.0527864,18.2763932 C12.7370485,18.9078689 11.2629515,18.9078689 10.9472136,18.2763932 C10.823719,18.029404 10.5233825,17.9292918 10.2763932,18.0527864 C10.029404,18.176281 9.92929178,18.4766175 10.0527864,18.7236068 Z" fill="#000000" fill-rule="nonzero"/><path d="M20.1480357,8.12643134 C20.3837519,7.89281983 20.6615266,7.39065974 20.7481079,6.96072443 C20.8464066,6.47260465 20.7199924,6.15357966 20.2892903,5.95343293 C19.2859879,5.48719955 16.6909773,6.74038289 15.7680934,8.18410301 C15.4714456,8.6481662 14.7521703,8.36174327 14.8557303,7.82079051 C15.1698168,6.18013912 14.948373,5.17738908 14.2041751,4.25139736 C13.8459783,3.8056997 14.3954961,3.20497606 14.8712597,3.52215175 C15.3098777,3.81456379 15.8803677,3.77750291 17.5722783,3.42758178 C18.0554826,3.32764541 18.3415541,3.27283103 18.6540212,3.22447246 C19.927858,3.02732874 20.8945218,3.09408673 21.7418573,3.56238711 C24.1656611,4.90196073 23.9801604,8.53848934 21.8248053,10.3801336 C21.4870427,10.668735 21.1020887,10.7292648 20.7500481,10.544011 C20.5496617,10.438562 20.4339818,10.3213611 20.2157964,10.0491166 C19.5794685,9.5708386 19.4620071,8.80633434 20.1480357,8.12643134 Z M15.9924216,6.46373003 C17.4282983,5.25544131 19.5300987,4.49793861 20.7107097,5.04656707 C21.5985385,5.45914 21.9115156,6.24898436 21.7284271,7.15814333 C21.6018785,7.78654345 21.2260602,8.46594645 20.8519643,8.83670205 C20.6245677,9.06206825 20.6369477,9.12784923 20.8459874,9.2707755 L20.9550688,9.37224392 L20.9688633,9.38959006 C21.1124951,9.57021532 21.1781742,9.63929586 21.2157339,9.65906086 C21.1888737,9.64492625 21.1361668,9.65321382 21.1751947,9.61986645 C22.8508783,8.18807778 22.9932739,5.39657501 21.2581427,4.43761289 C20.6454859,4.09901336 19.8821969,4.04630047 18.8069642,4.21270748 C18.5156127,4.25779811 18.2425224,4.31012517 17.7748121,4.40685705 C16.8149977,4.60536597 16.1592864,4.71921897 15.6525128,4.72846291 C15.8721157,5.24998907 15.9855947,5.81785332 15.9924216,6.46373003 Z" fill="#000000" fill-rule="nonzero"/><path d="M6.60930759,8.12643134 C6.84502383,7.89281983 7.12279848,7.39065974 7.20937982,6.96072443 C7.30767848,6.47260465 7.18126431,6.15357966 6.7505622,5.95343293 C5.76290093,5.49446798 3.15669069,6.80598694 2.22128242,8.26929972 C1.9182022,8.74342547 1.18428838,8.43307076 1.31332451,7.88534589 C1.68905337,6.29047435 1.43258926,5.21469756 0.61982464,4.26323635 C0.242768996,3.82183694 0.7943276,3.20043984 1.2773501,3.52245484 C1.71614532,3.81498498 2.29437549,3.77773811 4.00569375,3.42752777 C4.47604271,3.33127387 4.75581438,3.27797573 5.06041149,3.23032987 C6.36662166,3.02600914 7.34710376,3.08928399 8.20312923,3.56238711 C10.626933,4.90196073 10.4414323,8.53848934 8.28607721,10.3801336 C7.64807646,10.9252736 7.15811655,10.7584788 6.67301362,10.0744045 C5.95711965,9.49435678 5.90095352,8.82846044 6.60930759,8.12643134 Z M2.48132719,6.50592484 C3.92211133,5.28624695 6.00471394,4.50413925 7.17198162,5.04656707 C8.05981042,5.45914 8.37278752,6.24898436 8.18969904,7.15814333 C8.06315041,7.78654345 7.68733216,8.46594645 7.31323622,8.83670205 C7.03398814,9.1134567 7.03143387,9.09189401 7.34413969,9.33008656 L7.45524816,9.44759626 C7.6649949,9.75751478 7.53479886,9.70673651 7.63646661,9.61986645 C9.31215018,8.18807778 9.4545458,5.39657501 7.71941459,4.43761289 C7.10018427,4.09538031 6.32194754,4.04515725 5.21495479,4.21831589 C4.9298879,4.26290678 4.66218768,4.31390524 4.20618228,4.40722382 C3.25881248,4.60109699 2.60521117,4.71418855 2.09954007,4.72791671 C2.34412072,5.26686127 2.4734665,5.85319463 2.48132719,6.50592484 Z" fill="#000000" fill-rule="nonzero" transform="translate(5.228445, 6.912658) scale(-1, 1) translate(-5.228445, -6.912658) "/><path d="M5.2302135,13.3125 C6.72808861,13.3125 7.9802135,12.3038438 7.9802135,11 C7.9802135,9.69615616 6.72808861,8.6875 5.2302135,8.6875 C3.73233839,8.6875 2.4802135,9.69615616 2.4802135,11 C2.4802135,12.3038438 3.73233839,13.3125 5.2302135,13.3125 Z M5.2302135,12.3125 C4.24280724,12.3125 3.4802135,11.6981884 3.4802135,11 C3.4802135,10.3018116 4.24280724,9.6875 5.2302135,9.6875 C6.21761977,9.6875 6.9802135,10.3018116 6.9802135,11 C6.9802135,11.6981884 6.21761977,12.3125 5.2302135,12.3125 Z" fill="#000000" fill-rule="nonzero" transform="translate(5.230214, 11.000000) rotate(19.000000) translate(-5.230214, -11.000000) "/><path d="M18.7965323,13.3125 C20.2944074,13.3125 21.5465323,12.3038438 21.5465323,11 C21.5465323,9.69615616 20.2944074,8.6875 18.7965323,8.6875 C17.2986572,8.6875 16.0465323,9.69615616 16.0465323,11 C16.0465323,12.3038438 17.2986572,13.3125 18.7965323,13.3125 Z M18.7965323,12.3125 C17.8091261,12.3125 17.0465323,11.6981884 17.0465323,11 C17.0465323,10.3018116 17.8091261,9.6875 18.7965323,9.6875 C19.7839386,9.6875 20.5465323,10.3018116 20.5465323,11 C20.5465323,11.6981884 19.7839386,12.3125 18.7965323,12.3125 Z" fill="#000000" fill-rule="nonzero" transform="translate(18.796532, 11.000000) scale(-1, 1) rotate(19.000000) translate(-18.796532, -11.000000) "/><path d="M13.8226631,6.98742394 C13.9402892,6.59533704 14,6.288253 14,6 C14,4.98348861 13.0872671,4.375 12,4.375 C10.9127329,4.375 10,4.98348861 10,6 C10,6.288253 10.0597108,6.59533704 10.1773369,6.98742394 C10.2210224,7.13304233 10.2704209,7.28393252 10.3431512,7.49727446 C10.2902346,7.34205269 10.4818798,7.90177825 10.5256584,8.03311388 C10.8476446,8.99907277 11,9.71006442 11,10.5 C11,11.2083333 11.40625,11.75 12,11.75 C12.59375,11.75 13,11.2083333 13,10.5 C13,9.71006442 13.1523554,8.99907277 13.4743416,8.03311388 C13.5167008,7.90603638 13.6974938,7.37789696 13.6612379,7.4843924 C13.731577,7.27782463 13.7798621,7.13009404 13.8226631,6.98742394 Z M12,10.75 C12.0312496,10.75 12.0000009,10.7083345 12,10.5000088 C11.9999999,10.7083335 11.9687501,10.75 12,10.75 Z M11.4743416,7.71688612 C10.9513282,6.14784565 11,6.31008512 11,6 C11,5.64151139 11.3997671,5.375 12,5.375 C12.6002329,5.375 13,5.64151139 13,6 C13,6.31008512 13.0486718,6.14784565 12.5256584,7.71688612 C12.1726446,8.77592723 12,9.58160225 12,10.5 C12,9.58160225 11.8273554,8.77592723 11.4743416,7.71688612 Z" fill="#000000" fill-rule="nonzero"/></g><text x="0" y="39" fill="#000000" font-size="5px" font-weight="bold" font-family="'Helvetica Neue', Helvetica, Arial-Unicode, Arial, Sans-serif">Created by IcoLabs</text><text x="0" y="44" fill="#000000" font-size="5px" font-weight="bold" font-family="'Helvetica Neue', Helvetica, Arial-Unicode, Arial, Sans-serif">from the Noun Project</text></svg>