<?xml version="1.0" standalone="no"?>
<!DOCTYPE svg PUBLIC "-//W3C//DTD SVG 20010904//EN"
 "http://www.w3.org/TR/2001/REC-SVG-20010904/DTD/svg10.dtd">
<svg version="1.0" xmlns="http://www.w3.org/2000/svg"
 width="380.000000pt" height="317.000000pt" viewBox="0 0 380.000000 317.000000"
 preserveAspectRatio="xMidYMid meet">

<g transform="translate(0.000000,317.000000) scale(0.100000,-0.100000)"
fill="#000000" stroke="none">
<path d="M1511 3058 c1 -40 2 -41 9 -13 4 17 8 23 9 15 1 -8 6 -22 11 -30 9
-13 11 -13 20 0 5 8 10 20 10 25 0 6 -4 4 -9 -4 -7 -11 -13 -7 -25 18 -9 17
-19 31 -21 31 -3 0 -4 -19 -4 -42z"/>
<path d="M1576 3091 c-8 -13 5 -71 15 -71 5 0 9 18 9 40 0 37 -11 52 -24 31z"/>
<path d="M2013 3060 c0 -25 2 -35 4 -22 2 12 2 32 0 45 -2 12 -4 2 -4 -23z"/>
<path d="M2142 3060 c0 -25 3 -35 5 -22 2 12 11 22 18 22 7 0 16 -10 18 -22 4
-20 4 -19 6 5 1 24 -3 29 -26 26 -4 0 -10 8 -14 18 -5 11 -7 1 -7 -27z"/>
<path d="M1797 3084 c-7 -7 1 -54 12 -66 3 -4 6 8 6 27 0 35 -7 50 -18 39z"/>
<path d="M1620 3065 c-17 -20 -8 -49 15 -53 20 -4 20 -4 0 12 -20 15 -20 15 3
16 12 0 22 6 22 14 0 20 -27 27 -40 11z m25 -5 c3 -5 -1 -10 -10 -10 -9 0 -13
5 -10 10 3 6 8 10 10 10 2 0 7 -4 10 -10z"/>
<path d="M1690 3071 c-17 -7 -25 -51 -10 -51 6 0 10 9 10 20 0 11 5 20 10 20
6 0 10 -9 10 -20 0 -11 5 -20 10 -20 14 0 12 36 -2 48 -7 5 -20 7 -28 3z"/>
<path d="M1744 3068 c-4 -6 1 -17 10 -24 16 -11 16 -13 -1 -23 -16 -9 -16 -10
-1 -11 26 0 33 21 13 37 -11 7 -13 13 -7 13 7 0 12 5 12 10 0 14 -17 13 -26
-2z"/>
<path d="M1954 3069 c-4 -7 -3 -9 4 -5 6 3 13 2 17 -4 3 -5 -1 -10 -9 -10 -19
0 -31 -19 -19 -31 17 -17 44 2 41 29 -3 28 -22 40 -34 21z m26 -33 c0 -11 -19
-15 -25 -6 -3 5 1 10 9 10 9 0 16 -2 16 -4z"/>
<path d="M2083 3073 c-8 -3 -13 -22 -12 -46 0 -24 3 -35 7 -27 4 8 14 15 22
15 10 0 15 10 15 29 0 30 -10 38 -32 29z m25 -30 c-4 -22 -22 -20 -26 1 -2 10
3 16 13 16 10 0 15 -7 13 -17z"/>
<path d="M2215 3071 c-3 -6 2 -11 12 -12 14 0 13 -2 -5 -10 -27 -10 -24 -34 4
-34 14 0 19 7 19 29 0 30 -18 46 -30 27z m25 -35 c0 -3 -4 -8 -10 -11 -5 -3
-10 -1 -10 4 0 6 5 11 10 11 6 0 10 -2 10 -4z"/>
<path d="M2271 3066 c-10 -11 -8 -17 6 -25 16 -9 16 -12 3 -21 -13 -8 -13 -10
3 -10 10 0 17 8 17 20 0 11 -5 20 -11 20 -6 0 -9 7 -5 15 7 19 2 19 -13 1z"/>
<path d="M2333 3073 c-18 -7 -16 -52 3 -60 8 -3 21 0 27 6 9 9 8 11 -4 6 -10
-4 -20 -2 -24 4 -3 7 2 11 14 11 12 0 21 6 21 14 0 16 -19 25 -37 19z m22 -13
c3 -5 -1 -10 -10 -10 -9 0 -13 5 -10 10 3 6 8 10 10 10 2 0 7 -4 10 -10z"/>
<path d="M1836 3054 c-8 -22 -7 -34 3 -34 5 0 11 11 13 25 6 28 -6 34 -16 9z"/>
<path d="M1881 3048 c-1 -30 10 -41 33 -32 17 7 22 54 6 54 -5 0 -10 -11 -10
-25 0 -34 -18 -32 -23 3 l-4 27 -2 -27z"/>
<path d="M1335 2878 c-70 -15 -142 -69 -151 -114 -8 -42 2 -83 26 -109 9 -11
20 -36 24 -56 3 -20 15 -44 26 -54 11 -10 20 -25 20 -33 0 -13 3 -12 14 3 12
17 16 18 32 5 16 -14 17 -13 9 5 -17 37 -11 96 12 115 20 16 19 16 -24 14 -57
-3 -70 2 -88 37 -23 44 -19 77 16 108 58 53 148 64 259 32 158 -46 230 -103
269 -211 13 -36 35 -90 49 -120 22 -45 27 -73 30 -158 5 -122 1 -138 -27 -120
-29 18 -36 4 -23 -41 7 -21 12 -60 12 -87 0 -66 17 -177 31 -208 8 -17 19 -25
34 -24 27 3 35 42 35 179 0 49 5 109 12 134 13 49 7 65 -17 45 -25 -21 -34 -1
-41 90 -5 83 -5 87 30 158 20 41 36 80 36 88 0 30 40 128 62 151 25 27 191
119 241 134 61 19 156 12 202 -15 44 -27 75 -64 75 -92 0 -10 -11 -32 -25 -50
-24 -32 -28 -33 -72 -27 l-47 6 22 -28 c26 -33 28 -72 6 -103 -18 -26 -8 -29
24 -6 20 14 22 14 22 0 0 -9 4 -16 8 -16 10 0 39 80 34 93 -1 5 11 24 28 43
24 28 30 44 30 81 0 43 -4 51 -48 93 -96 92 -191 93 -402 2 l-85 -37 -150 0
-150 0 -90 43 c-125 60 -186 71 -290 50z m534 -246 c11 -4 13 3 8 31 -7 42 -1
50 23 35 14 -9 22 -9 34 1 11 9 8 -9 -12 -68 -15 -46 -29 -76 -33 -69 -4 7 -6
15 -3 19 9 15 -30 1 -41 -15 -11 -15 -15 -10 -33 41 -11 32 -23 67 -27 78 -5
14 -4 16 3 6 12 -17 51 2 54 27 0 9 4 -5 7 -32 4 -29 12 -51 20 -54z"/>
<path d="M2951 2183 c1 -27 4 -38 6 -26 2 12 12 24 21 26 15 4 15 5 0 6 -10 0
-18 7 -18 15 0 8 8 17 18 19 13 4 11 5 -5 6 -21 1 -23 -3 -22 -46z"/>
<path d="M3083 2185 c0 -27 2 -38 4 -22 2 15 2 37 0 50 -2 12 -4 0 -4 -28z"/>
<path d="M3113 2185 c0 -27 2 -38 4 -22 2 15 2 37 0 50 -2 12 -4 0 -4 -28z"/>
<path d="M3293 2185 c0 -27 2 -38 4 -22 2 15 2 37 0 50 -2 12 -4 0 -4 -28z"/>
<path d="M3522 2185 c0 -34 2 -42 7 -26 9 35 29 37 34 4 4 -27 4 -27 6 5 1 25
-3 32 -18 32 -11 0 -22 8 -24 18 -3 9 -5 -5 -5 -33z"/>
<path d="M302 2158 c-2 -44 0 -48 21 -47 16 1 17 3 5 6 -12 3 -18 17 -21 46
l-4 42 -1 -47z"/>
<path d="M580 2160 c0 -22 5 -40 10 -40 6 0 10 18 10 40 0 22 -4 40 -10 40 -5
0 -10 -18 -10 -40z"/>
<path d="M722 2160 c0 -31 2 -38 6 -22 4 13 12 23 17 23 6 0 13 -10 17 -23 6
-19 7 -18 5 7 -1 19 -7 30 -17 30 -8 0 -18 7 -22 15 -4 8 -6 -5 -6 -30z"/>
<path d="M3005 2180 c-8 -26 6 -43 31 -38 13 2 19 12 19 28 0 34 -40 41 -50
10z m45 -10 c0 -21 -24 -28 -35 -10 -8 14 3 30 21 30 8 0 14 -9 14 -20z"/>
<path d="M3130 2170 c0 -16 4 -30 8 -30 5 0 9 14 10 30 0 17 -4 30 -9 30 -5 0
-9 -13 -9 -30z"/>
<path d="M3164 2185 c-10 -24 4 -45 28 -44 l23 0 -22 9 c-13 5 -23 14 -23 20
0 6 10 15 23 20 l22 9 -23 0 c-12 1 -25 -6 -28 -14z"/>
<path d="M3224 2170 c1 -18 7 -26 24 -28 19 -3 22 1 21 30 -2 30 -2 31 -6 6
-5 -34 -30 -37 -36 -5 -3 19 -4 19 -3 -3z"/>
<path d="M3333 2193 c18 -5 17 -6 -2 -20 -24 -16 -19 -33 10 -33 14 0 19 7 19
30 0 25 -4 30 -22 29 -19 -1 -20 -2 -5 -6z m17 -33 c0 -5 -4 -10 -10 -10 -5 0
-10 5 -10 10 0 6 5 10 10 10 6 0 10 -4 10 -10z"/>
<path d="M3381 2168 c2 -28 2 -29 6 -8 3 14 10 28 17 32 7 5 5 8 -6 8 -14 0
-18 -8 -17 -32z"/>
<path d="M3451 2153 c1 -27 3 -40 6 -30 2 9 13 17 23 17 20 0 36 33 25 50 -3
5 -17 10 -31 10 -22 0 -24 -3 -23 -47z m45 26 c10 -17 -13 -36 -27 -22 -12 12
-4 33 11 33 5 0 12 -5 16 -11z"/>
<path d="M3604 2192 c18 -8 18 -9 3 -15 -27 -10 -21 -37 9 -37 22 0 25 4 22
28 -2 21 -9 28 -28 29 -21 2 -22 1 -6 -5z m16 -32 c0 -5 -5 -10 -11 -10 -5 0
-7 5 -4 10 3 6 8 10 11 10 2 0 4 -4 4 -10z"/>
<path d="M3650 2186 c0 -8 8 -17 18 -21 16 -7 15 -8 -3 -15 -16 -7 -17 -9 -3
-9 25 -1 33 20 12 32 -17 10 -17 11 1 18 19 7 18 8 -2 8 -13 1 -23 -5 -23 -13z"/>
<path d="M3704 2185 c-10 -24 4 -45 28 -44 17 1 18 2 6 6 -22 5 -24 23 -3 23
8 0 15 7 15 15 0 8 -9 15 -20 15 -11 0 -23 -7 -26 -15z"/>
<path d="M427 2183 c-6 -11 4 -73 12 -73 7 0 6 68 -2 76 -3 3 -7 2 -10 -3z"/>
<path d="M471 2170 c-20 -11 -9 -54 14 -58 l20 -4 -20 16 c-20 15 -20 15 3 16
12 0 22 6 22 14 0 17 -23 27 -39 16z m24 -10 c3 -5 -1 -10 -10 -10 -9 0 -13 5
-10 10 3 6 8 10 10 10 2 0 7 -4 10 -10z"/>
<path d="M524 2168 c-5 -8 -2 -9 9 -5 22 8 22 -2 0 -19 -22 -16 -5 -38 20 -28
21 8 22 50 1 58 -21 8 -22 8 -30 -6z m36 -32 c0 -11 -19 -15 -25 -6 -3 5 1 10
9 10 9 0 16 -2 16 -4z"/>
<path d="M660 2172 c-17 -8 -26 -82 -10 -82 6 0 10 4 10 9 0 5 9 11 21 14 16
4 20 12 17 33 -3 29 -14 37 -38 26z m26 -38 c-5 -13 -10 -14 -18 -6 -6 6 -8
18 -4 28 5 13 10 14 18 6 6 -6 8 -18 4 -28z"/>
<path d="M794 2169 c-4 -7 -3 -9 4 -5 6 3 13 2 17 -4 3 -5 -1 -10 -9 -10 -19
0 -31 -19 -19 -31 17 -17 44 2 41 29 -3 28 -22 40 -34 21z m26 -33 c0 -3 -4
-8 -10 -11 -5 -3 -10 -1 -10 4 0 6 5 11 10 11 6 0 10 -2 10 -4z"/>
<path d="M844 2168 c-4 -6 0 -16 9 -23 22 -16 22 -29 0 -20 -15 5 -16 4 -5 -6
9 -10 15 -10 24 -1 9 9 9 15 0 24 -15 15 -16 32 -2 23 6 -3 10 -1 10 4 0 15
-27 14 -36 -1z"/>
<path d="M901 2162 c-6 -11 -6 -24 0 -35 11 -19 39 -23 39 -6 0 5 -4 8 -9 4
-5 -3 -12 -1 -16 5 -3 5 3 10 14 10 24 0 27 10 9 28 -16 16 -26 15 -37 -6z
m29 -2 c0 -5 -5 -10 -11 -10 -5 0 -7 5 -4 10 3 6 8 10 11 10 2 0 4 -4 4 -10z"/>
<path d="M351 2148 c-1 -30 10 -41 33 -32 10 4 16 17 15 33 -1 25 -1 25 -7 3
-4 -13 -11 -23 -17 -23 -5 0 -13 10 -17 23 -6 22 -6 22 -7 -4z"/>
<path d="M187 2019 c-54 -8 -132 -50 -147 -79 -16 -31 -12 -85 10 -113 11 -14
20 -34 20 -45 0 -11 11 -33 24 -49 12 -15 26 -35 29 -43 4 -12 6 -11 6 3 1 20
12 22 30 5 11 -11 11 -9 2 9 -15 29 -14 64 3 88 13 19 11 20 -28 23 -97 6 -99
108 -2 156 55 27 118 24 218 -11 120 -42 178 -95 207 -188 7 -22 19 -55 28
-73 8 -19 23 -51 32 -73 l18 -40 32 71 c17 39 31 76 31 83 0 41 34 107 70 136
21 17 43 31 47 31 5 0 25 11 44 24 45 31 148 66 192 66 42 0 115 -37 140 -72
38 -52 2 -108 -69 -108 -44 0 -44 0 -24 -20 23 -23 27 -79 8 -99 -11 -11 -9
-11 12 -1 19 10 25 10 28 1 6 -18 44 47 40 68 -2 10 10 33 26 51 51 61 21 133
-75 183 -70 36 -122 31 -267 -25 -106 -42 -108 -42 -242 -42 l-135 -1 -77 37
c-42 20 -93 40 -115 43 -21 4 -45 8 -53 10 -8 1 -36 -1 -63 -6z m523 -149 c0
-5 -7 -10 -15 -10 -8 0 -15 5 -15 10 0 6 7 10 15 10 8 0 15 -4 15 -10z m-98
-29 c14 8 24 7 36 -3 13 -11 14 -11 8 0 -7 11 -4 12 11 3 11 -6 23 -7 27 -4 3
3 -2 -12 -11 -34 -15 -35 -43 -55 -43 -31 0 4 -8 8 -17 8 -15 0 -16 -2 -3 -10
13 -9 13 -10 0 -10 -10 0 -23 19 -33 47 -10 27 -13 43 -6 36 9 -9 18 -9 31 -2z"/>
<path d="M3495 2011 c-33 -10 -94 -33 -135 -51 -71 -31 -81 -32 -206 -33
l-130 -1 -85 45 c-81 43 -87 44 -174 44 -74 0 -97 -4 -133 -23 -79 -42 -99
-109 -52 -174 11 -15 20 -35 20 -44 0 -10 10 -33 23 -51 22 -33 37 -42 37 -23
0 5 7 7 16 3 14 -5 15 -3 6 14 -11 21 -6 59 11 81 7 9 3 12 -14 14 -13 0 -30
2 -37 2 -21 2 -52 48 -52 78 0 51 74 98 153 98 79 0 219 -51 271 -99 27 -24
86 -133 86 -157 0 -20 69 -160 70 -141 0 9 12 40 26 67 14 27 28 64 31 82 11
77 50 124 147 183 77 46 135 65 202 65 60 0 97 -15 130 -52 34 -36 37 -61 13
-91 -17 -22 -29 -27 -65 -27 l-45 0 20 -26 c26 -33 27 -67 4 -90 -14 -13 -14
-16 -3 -12 8 3 23 9 33 13 12 5 17 2 17 -11 1 -27 30 43 30 70 0 13 11 33 25
46 35 33 35 97 -1 140 -57 68 -144 90 -239 61z m-264 -185 c7 -8 -16 -95 -28
-105 -3 -3 -4 1 -1 9 7 19 -11 35 -37 35 -30 -1 -45 -13 -39 -33 4 -13 3 -13
-7 2 -7 11 -18 38 -24 61 l-13 40 72 0 c39 0 74 -4 77 -9z"/>
<path d="M3542 1738 c5 -15 28 -23 28 -10 0 5 -7 13 -16 16 -10 4 -14 1 -12
-6z"/>
<path d="M1610 1670 c0 -27 5 -50 10 -50 6 0 10 6 10 13 0 8 11 19 25 25 41
19 26 62 -22 62 -21 0 -23 -4 -23 -50z m48 18 c-6 -18 -28 -21 -28 -4 0 9 7
16 16 16 9 0 14 -5 12 -12z"/>
<path d="M1690 1670 c0 -50 16 -70 22 -28 5 32 28 35 28 4 0 -14 5 -26 11 -26
6 0 9 14 7 33 -2 26 -7 32 -25 30 -17 -2 -23 2 -23 17 0 11 -4 20 -10 20 -5 0
-10 -22 -10 -50z"/>
<path d="M2172 1703 c-11 -21 -4 -83 9 -83 5 0 9 11 9 25 0 14 5 25 11 25 8 0
8 4 0 13 -8 10 -7 17 1 25 9 9 8 12 -5 12 -9 0 -20 -8 -25 -17z"/>
<path d="M1785 1681 c-3 -6 2 -11 12 -12 14 0 13 -2 -5 -10 -30 -12 -23 -33
12 -37 26 -3 27 -1 24 30 -3 33 -29 51 -43 29z m30 -41 c-3 -5 -10 -10 -16
-10 -5 0 -9 5 -9 10 0 6 7 10 16 10 8 0 12 -4 9 -10z"/>
<path d="M1853 1674 c-4 -10 1 -20 13 -27 17 -10 17 -11 -1 -18 -19 -7 -19 -8
2 -8 30 -1 40 19 18 36 -11 7 -13 13 -7 13 7 0 12 5 12 10 0 16 -30 11 -37 -6z"/>
<path d="M1920 1675 c-20 -24 -8 -50 25 -52 20 -1 23 0 8 4 -28 6 -30 23 -3
23 24 0 27 25 4 34 -21 8 -20 8 -34 -9z"/>
<path d="M1990 1680 c-12 -7 -12 -12 4 -29 17 -18 17 -19 -1 -24 -12 -3 -9 -5
10 -6 31 -1 37 22 10 38 -17 10 -17 10 0 11 10 0 15 5 12 10 -8 12 -16 12 -35
0z"/>
<path d="M2090 1675 c-20 -25 -8 -50 25 -50 21 0 31 5 33 18 4 21 -14 47 -33
47 -7 0 -18 -7 -25 -15z m38 -22 c-4 -22 -22 -20 -26 1 -2 10 3 16 13 16 10 0
15 -7 13 -17z"/>
<path d="M1410 1480 c0 -54 19 -71 21 -17 l1 32 14 -32 c8 -18 18 -33 23 -33
4 0 13 15 19 33 l10 32 1 -32 c2 -54 21 -37 21 17 0 59 -21 69 -40 18 l-13
-33 -10 33 c-6 21 -16 32 -28 32 -16 0 -19 -8 -19 -50z"/>
<path d="M2030 1480 c0 -27 5 -50 10 -50 6 0 10 23 10 50 0 28 -4 50 -10 50
-5 0 -10 -22 -10 -50z"/>
<path d="M2310 1480 c0 -27 5 -50 10 -50 6 0 10 23 10 50 0 28 -4 50 -10 50
-5 0 -10 -22 -10 -50z"/>
<path d="M1767 1503 c-9 -15 5 -73 18 -73 15 0 14 72 -2 77 -6 2 -13 0 -16 -4z"/>
<path d="M1551 1486 c-21 -25 -9 -51 24 -53 l30 -3 -25 12 -25 11 23 5 c15 2
22 9 20 20 -4 22 -32 27 -47 8z"/>
<path d="M1620 1463 c0 -18 5 -33 10 -33 6 0 10 11 10 25 0 14 5 25 10 25 6 0
10 -11 10 -25 0 -16 6 -25 15 -25 16 0 18 12 9 47 -5 16 -13 21 -35 21 -26 -1
-29 -4 -29 -35z"/>
<path d="M1703 1484 c-4 -10 1 -20 13 -27 17 -10 17 -11 -1 -18 -19 -7 -19 -8
2 -8 29 -1 40 19 20 34 -18 13 -24 30 -7 20 6 -3 10 -1 10 4 0 17 -30 13 -37
-5z"/>
<path d="M1820 1463 c0 -18 5 -33 10 -33 6 0 10 11 10 25 0 14 5 25 10 25 6 0
10 4 10 8 0 4 -9 8 -20 8 -16 0 -20 -7 -20 -33z"/>
<path d="M1872 1468 c2 -28 8 -34 31 -36 25 -3 27 -1 27 33 0 22 -4 34 -10 30
-5 -3 -10 -15 -10 -26 0 -10 -4 -19 -10 -19 -5 0 -10 11 -10 25 0 14 -5 25
-11 25 -6 0 -9 -14 -7 -32z"/>
<path d="M1960 1490 c0 -6 4 -9 9 -5 5 3 12 1 15 -4 3 -5 -3 -11 -14 -14 -23
-6 -27 -37 -5 -37 9 0 12 6 9 15 -4 8 -1 15 5 15 6 0 10 -5 9 -11 -2 -6 3 -14
10 -16 10 -4 13 4 10 28 -2 26 -8 35 -25 37 -13 2 -23 -2 -23 -8z"/>
<path d="M2110 1485 c-17 -21 -8 -50 18 -53 12 -2 22 1 22 7 0 6 -5 10 -12 9
-6 -2 -14 5 -16 15 -2 10 2 17 12 17 9 0 16 5 16 10 0 15 -26 12 -40 -5z"/>
<path d="M2160 1495 c0 -4 7 -20 16 -37 15 -30 15 -32 -2 -45 -16 -12 -16 -13
-1 -13 16 0 37 32 51 78 4 12 3 22 -2 22 -5 0 -13 -10 -16 -22 l-7 -23 -9 23
c-8 19 -30 32 -30 17z"/>
<path d="M2250 1485 c-17 -21 -8 -50 18 -53 12 -2 22 1 22 7 0 6 -5 10 -12 9
-6 -2 -14 5 -16 15 -2 10 2 17 12 17 9 0 16 5 16 10 0 15 -26 12 -40 -5z"/>
<path d="M2349 1484 c-17 -21 0 -48 32 -51 15 -1 17 0 7 3 -24 7 -23 24 2 24
23 0 26 10 8 28 -16 16 -33 15 -49 -4z m36 -4 c3 -5 -1 -10 -10 -10 -9 0 -13
5 -10 10 3 6 8 10 10 10 2 0 7 -4 10 -10z"/>
<path d="M631 1462 c-1 -32 -3 -33 -31 -27 -33 7 -34 6 -21 -28 5 -13 12 -61
16 -108 3 -46 11 -107 17 -135 9 -43 14 -51 32 -51 25 0 23 -8 31 142 3 61 10
125 16 143 13 38 6 51 -16 32 -20 -16 -32 -5 -38 35 l-4 30 -2 -33z"/>
<path d="M3161 1453 c-1 -25 -17 -38 -26 -23 -3 5 -13 10 -22 10 -11 0 -14 -6
-8 -22 3 -13 10 -66 15 -118 13 -135 28 -190 51 -190 22 0 28 27 33 166 2 56
9 112 16 124 13 23 -1 52 -14 31 -13 -20 -35 -11 -39 17 -3 21 -4 22 -6 5z"/>
<path d="M1604 1106 c-9 -24 0 -58 19 -70 26 -15 60 25 48 57 -10 26 -58 36
-67 13z m54 -25 c4 -28 -17 -45 -35 -29 -14 11 -17 40 -6 52 14 14 38 0 41
-23z"/>
<path d="M1823 1080 c0 -25 2 -35 4 -22 2 12 2 32 0 45 -2 12 -4 2 -4 -23z"/>
<path d="M2222 1080 c0 -31 2 -38 6 -22 4 13 12 23 17 23 6 0 13 -10 17 -23 6
-19 7 -18 5 7 -1 19 -7 30 -17 30 -8 0 -18 7 -22 15 -4 8 -6 -5 -6 -30z"/>
<path d="M1909 1104 c-3 -21 3 -60 10 -67 4 -4 7 8 7 27 -1 32 -14 63 -17 40z"/>
<path d="M1850 1090 c0 -6 4 -9 9 -5 5 3 12 1 16 -5 3 -5 -1 -10 -9 -10 -19 0
-31 -19 -19 -31 18 -18 44 2 41 30 -3 25 -38 45 -38 21z m30 -34 c0 -11 -19
-15 -25 -6 -3 5 1 10 9 10 9 0 16 -2 16 -4z"/>
<path d="M1982 1088 c-16 -16 -15 -33 2 -47 22 -18 48 -2 44 28 -3 28 -27 38
-46 19z m34 -13 c3 -8 3 -19 -1 -25 -10 -16 -35 7 -28 26 7 18 22 18 29 -1z"/>
<path d="M2063 1093 c-7 -2 -13 -17 -12 -31 0 -15 3 -20 6 -12 14 44 15 45 29
15 l14 -30 -2 29 c-3 30 -13 38 -35 29z"/>
<path d="M2163 1093 c-8 -3 -13 -22 -13 -46 0 -23 4 -37 8 -31 4 6 15 13 25
17 13 5 17 15 15 34 -3 27 -14 35 -35 26z m23 -39 c-5 -13 -10 -14 -18 -6 -6
6 -8 18 -4 28 5 13 10 14 18 6 6 -6 8 -18 4 -28z"/>
<path d="M2294 1089 c-4 -7 -3 -9 4 -5 6 3 13 2 16 -3 3 -5 -4 -11 -16 -14
-18 -5 -19 -9 -9 -21 18 -22 43 -8 39 22 -3 28 -22 40 -34 21z m26 -33 c0 -3
-4 -8 -10 -11 -5 -3 -10 -1 -10 4 0 6 5 11 10 11 6 0 10 -2 10 -4z"/>
<path d="M2346 1085 c-3 -9 1 -18 9 -21 8 -4 15 -11 15 -16 0 -6 -7 -7 -16 -4
-8 3 -12 2 -9 -4 9 -15 25 -12 32 6 3 9 0 20 -8 25 -12 8 -12 11 1 19 13 8 13
10 -1 10 -9 0 -20 -7 -23 -15z"/>
<path d="M2401 1082 c-6 -11 -6 -24 0 -35 11 -19 39 -23 39 -6 0 5 -4 8 -9 4
-5 -3 -12 -1 -16 5 -3 5 3 10 14 10 25 0 28 25 5 34 -22 8 -22 8 -33 -12z m34
-2 c3 -5 -1 -10 -10 -10 -9 0 -13 5 -10 10 3 6 8 10 10 10 2 0 7 -4 10 -10z"/>
<path d="M1690 1079 c0 -21 16 -42 28 -35 13 8 22 46 11 46 -5 0 -9 -8 -9 -17
-1 -16 -2 -16 -15 1 -11 14 -15 16 -15 5z"/>
<path d="M1751 1068 c-1 -30 10 -41 33 -32 9 4 16 17 16 33 l-1 26 -13 -30
c-14 -30 -15 -29 -29 15 -3 8 -6 3 -6 -12z"/>
<path d="M1952 1065 c0 -16 2 -22 5 -12 2 9 2 23 0 30 -3 6 -5 -1 -5 -18z"/>
<path d="M1448 905 c-73 -20 -128 -73 -128 -123 0 -9 11 -35 25 -57 13 -22 25
-49 25 -61 0 -11 9 -29 20 -39 11 -10 20 -25 20 -34 0 -13 2 -14 9 -2 5 8 16
11 25 8 14 -5 15 -3 6 13 -11 20 -4 66 13 88 7 9 3 12 -17 13 -14 1 -30 3 -36
4 -5 1 -14 3 -18 4 -5 0 -16 17 -25 37 -14 28 -15 39 -6 57 31 57 122 86 212
68 158 -33 239 -97 286 -225 43 -120 74 -183 79 -166 2 8 14 38 27 65 12 28
31 76 41 107 22 70 60 118 116 148 24 12 66 34 93 48 70 37 184 38 233 4 18
-13 39 -37 48 -54 14 -27 14 -32 -1 -54 -19 -29 -60 -47 -86 -39 -21 7 -25 -5
-7 -23 9 -9 8 -15 -8 -27 -18 -14 -18 -14 5 -15 16 0 21 -4 17 -15 -3 -8 -9
-22 -12 -30 -7 -17 11 -21 21 -5 10 16 25 12 25 -7 1 -27 30 45 30 73 0 13 4
24 10 24 13 0 40 42 45 70 11 58 -54 129 -139 152 -58 15 -132 1 -254 -48 -82
-33 -94 -35 -212 -37 l-125 -2 -80 37 c-124 58 -187 68 -277 43z m436 -177
c-6 -10 -4 -10 7 -3 12 9 43 11 86 6 8 -1 7 -15 -4 -49 -14 -44 -19 -49 -44
-48 -23 1 -29 7 -39 40 -6 21 -14 44 -17 52 -3 8 0 14 7 14 6 0 8 -5 4 -12z
m581 -38 c3 -5 -1 -10 -10 -10 -9 0 -13 5 -10 10 3 6 8 10 10 10 2 0 7 -4 10
-10z"/>
<path d="M1920 666 c0 -2 7 -9 15 -16 9 -7 15 -8 15 -2 0 5 -7 12 -15 16 -8 3
-15 4 -15 2z"/>
<path d="M1931 353 c-1 -28 -18 -38 -37 -22 -22 18 -28 4 -16 -43 6 -24 13
-78 16 -122 8 -103 24 -156 47 -156 23 0 27 17 32 156 3 61 10 121 17 133 12
24 -1 54 -14 32 -13 -20 -35 -11 -39 17 -3 21 -4 22 -6 5z"/>
<path d="M3262 110 c0 -14 2 -19 5 -12 2 6 2 18 0 25 -3 6 -5 1 -5 -13z"/>
<path d="M3286 113 c-6 -14 -5 -15 5 -6 7 7 10 15 7 18 -3 3 -9 -2 -12 -12z"/>
<path d="M3353 115 c-3 -9 -3 -19 1 -22 3 -4 6 1 6 10 0 22 17 22 23 0 4 -14
5 -12 6 5 1 25 -26 31 -36 7z"/>
<path d="M3400 115 c0 -8 6 -15 13 -15 8 0 7 -4 -3 -10 -9 -6 -10 -10 -3 -10
16 0 26 17 13 25 -6 4 -8 11 -5 16 4 5 1 9 -4 9 -6 0 -11 -7 -11 -15z"/>
<path d="M3435 120 c3 -5 8 -10 11 -10 2 0 4 5 4 10 0 6 -5 10 -11 10 -5 0 -7
-4 -4 -10z"/>
<path d="M3470 119 c0 -5 4 -8 9 -5 5 3 11 -3 14 -14 3 -11 11 -20 19 -19 10
0 10 2 1 6 -7 2 -13 13 -13 24 0 10 -7 19 -15 19 -8 0 -15 -5 -15 -11z"/>
<path d="M3540 126 c0 -2 7 -7 16 -10 8 -3 12 -2 9 4 -6 10 -25 14 -25 6z"/>
<path d="M3584 117 c-7 -19 2 -37 19 -37 8 0 7 3 -2 9 -11 7 -11 9 0 14 11 3
11 7 2 17 -10 11 -14 10 -19 -3z"/>
<path d="M3620 122 c0 -5 7 -9 15 -9 8 0 15 4 15 9 0 4 -7 8 -15 8 -8 0 -15
-4 -15 -8z"/>
<path d="M3697 108 c4 -19 3 -20 -7 -8 -9 12 -11 12 -8 1 7 -26 28 -24 28 3 0
14 -4 26 -9 26 -5 0 -7 -10 -4 -22z"/>
<path d="M3661 104 c0 -11 3 -14 6 -6 3 7 2 16 -1 19 -3 4 -6 -2 -5 -13z"/>
<path d="M3318 103 c7 -3 16 -2 19 1 4 3 -2 6 -13 5 -11 0 -14 -3 -6 -6z"/>
<path d="M3550 90 c-9 -6 -10 -10 -3 -10 6 0 15 5 18 10 8 12 4 12 -15 0z"/>
<path d="M3620 88 c0 -10 17 -10 24 0 3 5 -1 9 -9 9 -8 0 -15 -4 -15 -9z"/>
</g>
</svg>
