<?xml version="1.0" standalone="no"?>
<!DOCTYPE svg PUBLIC "-//W3C//DTD SVG 20010904//EN"
 "http://www.w3.org/TR/2001/REC-SVG-20010904/DTD/svg10.dtd">
<svg version="1.0" xmlns="http://www.w3.org/2000/svg"
 width="512.000000pt" height="512.000000pt" viewBox="0 0 512.000000 512.000000"
 preserveAspectRatio="xMidYMid meet">

<g transform="translate(0.000000,512.000000) scale(0.100000,-0.100000)"
fill="#000000" stroke="none">
<path d="M4414 5105 c-33 -7 -92 -28 -130 -46 -65 -31 -116 -80 -941 -903
-1006 -1003 -917 -892 -806 -1007 l67 -69 -127 -129 c-139 -140 -149 -160
-102 -206 46 -47 66 -37 207 102 l128 127 133 -132 132 -132 -375 -375 -375
-375 -132 132 -133 133 145 145 c127 127 145 149 145 178 0 42 -30 72 -73 72
-29 0 -52 -20 -215 -183 -148 -149 -182 -188 -182 -211 0 -20 16 -44 60 -90
33 -35 60 -66 60 -69 0 -4 -8 -7 -17 -7 -37 0 -120 -49 -161 -94 -62 -68 -82
-120 -89 -229 -6 -112 -16 -149 -55 -192 -35 -41 -67 -52 -178 -60 -133 -10
-180 -27 -248 -90 -79 -73 -102 -128 -113 -267 -8 -109 -16 -135 -53 -176 -36
-41 -74 -53 -185 -61 -138 -11 -193 -34 -264 -111 -62 -67 -82 -122 -92 -250
-3 -47 -11 -99 -16 -117 -17 -52 -98 -117 -192 -153 -138 -53 -237 -130 -237
-186 0 -32 42 -74 73 -74 14 0 46 18 73 40 27 22 83 54 124 71 119 50 150 68
208 123 76 72 101 127 113 245 14 146 17 159 55 201 42 47 72 57 189 64 128 7
178 27 251 100 73 73 93 123 100 251 7 118 17 146 64 189 46 41 51 43 191 55
126 11 183 35 248 106 62 68 81 118 90 244 13 164 41 202 172 232 l82 20 82
-81 c64 -62 89 -80 111 -80 24 0 91 63 441 412 l413 413 62 -62 c70 -69 101
-85 138 -71 30 11 735 711 756 751 27 51 -7 107 -65 107 -33 0 -50 -14 -238
-202 l-202 -202 -148 142 c-81 77 -219 212 -306 299 l-157 158 687 686 c752
750 723 724 867 750 180 31 369 -68 447 -235 57 -121 58 -243 3 -369 -25 -56
-64 -99 -406 -443 -409 -412 -406 -407 -353 -459 16 -17 35 -25 57 -25 30 0
66 33 399 368 203 203 383 392 403 423 111 169 124 392 34 577 -44 91 -167
215 -260 260 -119 58 -256 75 -384 47z m-1132 -2158 l131 -138 -79 -80 -79
-79 -302 302 -303 303 82 82 83 83 168 -167 c93 -93 227 -230 299 -306z"/>
</g>
</svg>
